<?xml version="1.0" encoding="UTF-8"?>
<svg width="176px" height="176px" viewBox="0 0 176 176" version="1.1" xmlns="http://www.w3.org/2000/svg" xmlns:xlink="http://www.w3.org/1999/xlink">
    <!-- Generator: Sketch 59.1 (86144) - https://sketch.com -->
    <title>Dashboard-icon-2</title>
    <desc>Created with Sketch.</desc>
    <g id="Dashboard-icon-2" stroke="none" stroke-width="1" fill="none" fill-rule="evenodd">
        <g id="dashboard-icon">
            <path d="M16.672,176 C7.464,176 0,168.536 0,159.328 L0,16.672 C0,7.464 7.464,0 16.672,0 L159.328,0 C168.536,0 176,7.464 176,16.672 L176,159.328 C176,168.536 168.536,176 159.328,176 L16.672,176 Z" id="background" fill="#00AEFF" fill-rule="nonzero"></path>
            <path d="M88.5000667,41 C121.361227,41 148,67.478841 148,100.142839 C148.013796,110.591157 145.228401,120.854654 139.930092,129.878617 C138.815514,131.778072 136.730821,132.910623 134.526051,132.994932 L134.260956,133 L42.7389149,133 C40.4373775,133 38.2289401,131.85405 37.0697793,129.878617 C31.7714702,120.854654 28.9860487,110.591157 29,100.142839 C29,67.478841 55.6386441,41 88.5000667,41 Z M48.8334259,100.142839 C45.1823316,100.142839 42.2222754,103.084874 42.2222754,106.714323 C42.2222754,110.343511 45.1823316,113.285807 48.8334259,113.285807 C52.4845203,113.285807 55.4445764,110.343511 55.4445764,106.714323 C55.4445764,103.084874 52.4845203,100.142839 48.8334259,100.142839 Z M128.166445,100.142839 C124.515351,100.142839 121.555295,103.084874 121.555295,106.714323 C121.555295,110.343511 124.515351,113.285807 128.166445,113.285807 C131.81754,113.285807 134.777596,110.343511 134.777596,106.714323 C134.777596,103.084874 131.81754,100.142839 128.166445,100.142839 Z M58.7500205,67.285677 C55.0989262,67.285677 52.13887,70.2279732 52.13887,73.8571615 C52.13887,77.4863497 55.0989262,80.4286459 58.7500205,80.4286459 C62.4011149,80.4286459 65.3611711,77.4863497 65.3611711,73.8571615 C65.3611711,70.2279732 62.4011149,67.285677 58.7500205,67.285677 Z M122.453576,66.9164821 C123.184772,67.5530527 123.354135,68.6223678 122.855438,69.4537344 L100.333762,106.997702 C101.39578,108.926398 102,111.142638 102,113.5 C102,115.85655 101.396197,118.072075 100.334859,120.000305 L76.6651408,120.000305 C75.6038032,118.072075 75,115.85655 75,113.5 C75,106.044156 81.0441559,100 88.5,100 C89.293093,100 90.0702128,100.06839 90.8257837,100.199593 L119.631894,67.1116926 C120.357174,66.2786006 121.620484,66.1912018 122.453576,66.9164821 Z M88.5,54 C92.0898509,54 95,56.9101491 95,60.5 C95,64.0898509 92.0898509,67 88.5,67 C84.9101491,67 82,64.0898509 82,60.5 C82,56.9101491 84.9101491,54 88.5,54 Z" id="Shape" fill="#FFFFFF"></path>
        </g>
    </g>
</svg>
