<svg xmlns="http://www.w3.org/2000/svg" width="40" height="40" fill="none">
  <path fill="#91A7BE" fill-rule="evenodd" d="M9 6C7.34315 6 6 7.34315 6 9v6c0 1.6569 1.34315 3 3 3h6c1.6569 0 3-1.3431 3-3V9c0-1.65685-1.3431-3-3-3H9zm0 16c-1.65685 0-3 1.3431-3 3v6c0 1.6569 1.34315 3 3 3h6c1.6569 0 3-1.3431 3-3v-6c0-1.6569-1.3431-3-3-3H9zM22 9c0-1.65685 1.3431-3 3-3h6c1.6569 0 3 1.34315 3 3v6c0 1.6569-1.3431 3-3 3h-6c-1.6569 0-3-1.3431-3-3V9zm3 13c-1.6569 0-3 1.3431-3 3v6c0 1.6569 1.3431 3 3 3h6c1.6569 0 3-1.3431 3-3v-6c0-1.6569-1.3431-3-3-3h-6z" clip-rule="evenodd"/>
</svg>