<svg width="77" height="77" viewBox="0 0 77 77" fill="none" xmlns="http://www.w3.org/2000/svg">
<circle cx="38.5" cy="38.5" r="38.5" fill="white"/>
<path d="M38.2969 62.4356L16.0584 52.1352V25.3643L38.2969 35.6648V62.4356Z" fill="#1B2235"/>
<path d="M39.3355 60.6537C38.5951 60.3086 37.8547 59.9687 37.1143 59.6236C35.3506 58.8047 33.587 57.991 31.8233 57.1721C29.674 56.1781 27.5299 55.1841 25.3806 54.185C23.5347 53.33 21.6939 52.4751 19.848 51.6202C18.9482 51.203 18.0535 50.7601 17.1382 50.3635C17.128 50.3584 17.1125 50.3532 17.1022 50.3481C17.4416 50.9403 17.781 51.5326 18.1203 52.1249C18.1203 51.2339 18.1203 50.3429 18.1203 49.4571C18.1203 47.3197 18.1203 45.1824 18.1203 43.0502C18.1203 40.4751 18.1203 37.9 18.1203 35.33C18.1203 33.1051 18.1203 30.8802 18.1203 28.6553C18.1203 27.5738 18.1409 26.4871 18.1203 25.4055C18.1203 25.3901 18.1203 25.3746 18.1203 25.3592C17.0868 25.9514 16.0584 26.5437 15.0249 27.136C15.7654 27.4811 16.5058 27.821 17.2462 28.166C19.0099 28.9849 20.7735 29.7987 22.5372 30.6175C24.6865 31.6115 26.8306 32.6055 28.9799 33.6047C30.8258 34.4596 32.6666 35.3146 34.5125 36.1695C35.4123 36.5867 36.307 37.0296 37.2223 37.4261C37.2325 37.4313 37.248 37.4364 37.2582 37.4416C36.9189 36.8493 36.5795 36.257 36.2402 35.6648C36.2402 36.5558 36.2402 37.4467 36.2402 38.3326C36.2402 40.4699 36.2402 42.6073 36.2402 44.7395C36.2402 47.3146 36.2402 49.8897 36.2402 52.4597C36.2402 54.6846 36.2402 56.9095 36.2402 59.1343C36.2402 60.2159 36.2247 61.3026 36.2402 62.3841C36.2402 62.3996 36.2402 62.415 36.2402 62.4305C36.2402 63.5069 37.1863 64.5421 38.2969 64.4906C39.4127 64.4391 40.3536 63.5841 40.3536 62.4305C40.3536 61.5395 40.3536 60.6485 40.3536 59.7627C40.3536 57.6253 40.3536 55.488 40.3536 53.3558C40.3536 50.7807 40.3536 48.2056 40.3536 45.6356C40.3536 43.4107 40.3536 41.1858 40.3536 38.9609C40.3536 37.8794 40.3691 36.7927 40.3536 35.7111C40.3536 35.6957 40.3536 35.6802 40.3536 35.6648C40.3536 34.9952 39.9731 34.1815 39.3355 33.8879C38.5951 33.5429 37.8547 33.203 37.1143 32.8579C35.3506 32.039 33.587 31.2253 31.8233 30.4064C29.674 29.4124 27.5299 28.4184 25.3806 27.4193C23.5347 26.5643 21.6939 25.7094 19.848 24.8544C18.943 24.4373 18.0432 24.015 17.1382 23.5978C17.128 23.5926 17.1125 23.5875 17.1022 23.5823C16.7834 23.3969 16.4338 23.3042 16.0636 23.2991C15.6934 23.2991 15.3489 23.3918 15.0249 23.5823C14.3976 23.948 14.0069 24.633 14.0069 25.3592C14.0069 26.2502 14.0069 27.1411 14.0069 28.027C14.0069 30.1643 14.0069 32.3017 14.0069 34.4339C14.0069 37.009 14.0069 39.5841 14.0069 42.1541C14.0069 44.379 14.0069 46.6038 14.0069 48.8287C14.0069 49.9103 13.9914 50.997 14.0069 52.0785C14.0069 52.094 14.0069 52.1094 14.0069 52.1249C14.0069 52.7944 14.3874 53.6082 15.0249 53.9017C15.7654 54.2468 16.5058 54.5867 17.2462 54.9318C19.0099 55.7507 20.7735 56.5644 22.5372 57.3833C24.6865 58.3773 26.8306 59.3713 28.9799 60.3704C30.8258 61.2253 32.6666 62.0803 34.5125 62.9352C35.4175 63.3524 36.3173 63.7747 37.2223 64.1919C37.2325 64.197 37.248 64.2022 37.2582 64.2073C37.7724 64.4442 38.2763 64.573 38.8419 64.4133C39.3201 64.2794 39.8343 63.9138 40.0708 63.4657C40.3228 62.9867 40.4513 62.4099 40.2765 61.8794C40.1222 61.4056 39.8137 60.8751 39.3355 60.6537Z" fill="#1B2235"/>
<path d="M59.8978 50.3532C59.1471 50.6983 58.3912 51.0382 57.6405 51.3832C55.8409 52.2021 54.0412 53.021 52.2416 53.8399C50.0666 54.8287 47.8865 55.8227 45.7115 56.8116C43.8244 57.6717 41.9322 58.5317 40.0452 59.3918C39.1299 59.809 38.2095 60.2056 37.3046 60.6382C37.2943 60.6433 37.2788 60.6485 37.2634 60.6536C38.2969 61.2459 39.3253 61.8382 40.3588 62.4305C40.3588 61.5395 40.3588 60.6485 40.3588 59.7627C40.3588 57.6253 40.3588 55.488 40.3588 53.3558C40.3588 50.7807 40.3588 48.2055 40.3588 45.6356C40.3588 43.4107 40.3588 41.1858 40.3588 38.9609C40.3588 37.8793 40.3794 36.7926 40.3588 35.7111C40.3588 35.6956 40.3588 35.6802 40.3588 35.6647C40.0194 36.257 39.6801 36.8493 39.3407 37.4416C40.0914 37.0965 40.8473 36.7566 41.598 36.4115C43.3976 35.5926 45.1973 34.7738 46.9969 33.9549C49.1719 32.966 51.3521 31.972 53.5271 30.9832C55.4141 30.1231 57.3063 29.263 59.1934 28.4029C60.1086 27.9858 61.029 27.5892 61.934 27.1566C61.9442 27.1514 61.9597 27.1463 61.9751 27.1411C60.9416 26.5488 59.9132 25.9566 58.8797 25.3643C58.8797 26.2553 58.8797 27.1463 58.8797 28.0321C58.8797 30.1695 58.8797 32.3068 58.8797 34.439C58.8797 37.0141 58.8797 39.5892 58.8797 42.1592C58.8797 44.3841 58.8797 46.609 58.8797 48.8339C58.8797 49.9154 58.8643 51.0021 58.8797 52.0837C58.8797 52.0991 58.8797 52.1146 58.8797 52.13C58.8797 53.2064 59.8258 54.2416 60.9364 54.1901C62.0522 54.1386 62.9932 53.2837 62.9932 52.13C62.9932 51.239 62.9932 50.348 62.9932 49.4622C62.9932 47.3249 62.9932 45.1875 62.9932 43.0553C62.9932 40.4802 62.9932 37.9051 62.9932 35.3351C62.9932 33.1102 62.9932 30.8853 62.9932 28.6604C62.9932 27.5789 63.0086 26.4922 62.9932 25.4106C62.9932 25.3952 62.9932 25.3797 62.9932 25.3643C62.9932 24.6381 62.6024 23.9531 61.9751 23.5875C61.6563 23.4021 61.3067 23.3093 60.9364 23.3042C60.5662 23.3042 60.2217 23.3969 59.8978 23.5875C59.1471 23.9325 58.3912 24.2724 57.6405 24.6175C55.8409 25.4364 54.0412 26.2553 52.2416 27.0742C50.0666 28.063 47.8865 29.057 45.7115 30.0458C43.8244 30.9059 41.9322 31.766 40.0452 32.6261C39.1299 33.0433 38.2044 33.4347 37.3046 33.8725C37.2943 33.8776 37.2788 33.8828 37.2634 33.8879C36.6258 34.1815 36.2453 35.0004 36.2453 35.6647C36.2453 36.5557 36.2453 37.4467 36.2453 38.3326C36.2453 40.4699 36.2453 42.6072 36.2453 44.7394C36.2453 47.3146 36.2453 49.8897 36.2453 52.4596C36.2453 54.6845 36.2453 56.9094 36.2453 59.1343C36.2453 60.2159 36.2299 61.3026 36.2453 62.3841C36.2453 62.3996 36.2453 62.415 36.2453 62.4305C36.2453 63.1567 36.6361 63.8416 37.2634 64.2073C37.5822 64.3927 37.9319 64.4854 38.3021 64.4906C38.6723 64.4906 39.0168 64.3979 39.3407 64.2073C40.0914 63.8622 40.8473 63.5223 41.598 63.1773C43.3976 62.3584 45.1973 61.5395 46.9969 60.7206C49.1719 59.7318 51.3521 58.7378 53.5271 57.7489C55.4141 56.8888 57.3063 56.0287 59.1934 55.1687C60.1086 54.7515 61.0341 54.3601 61.934 53.9223C61.9442 53.9171 61.9597 53.912 61.9751 53.9068C62.4173 53.706 62.7978 53.124 62.9212 52.6759C63.0549 52.1815 62.9932 51.5274 62.7155 51.0897C62.4327 50.6519 62.0111 50.2605 61.4866 50.142C61.3067 50.1163 61.1215 50.0905 60.9416 50.0699C60.5662 50.0751 60.2166 50.1678 59.8978 50.3532Z" fill="#1B2235"/>
<path d="M37.2585 16.8458C38.0092 17.1909 38.7651 17.5308 39.5158 17.8759C41.3154 18.6948 43.1151 19.5136 44.9147 20.3325C47.0897 21.3214 49.2699 22.3154 51.4449 23.3042C53.3319 24.1643 55.2241 25.0244 57.1112 25.8845C58.0264 26.3016 58.9314 26.7343 59.8518 27.1308C59.8672 27.136 59.8775 27.1411 59.8929 27.1463C59.8929 25.9617 59.8929 24.772 59.8929 23.5875C59.1422 23.9325 58.3863 24.2725 57.6356 24.6175C55.836 25.4364 54.0363 26.2553 52.2367 27.0742C50.0617 28.063 47.8816 29.057 45.7066 30.0459C43.8195 30.9059 41.9273 31.766 40.0403 32.6261C39.125 33.0433 38.2046 33.445 37.2997 33.8725C37.2894 33.8776 37.274 33.8828 37.2585 33.8879C37.9527 33.8879 38.6417 33.8879 39.3358 33.8879C38.5954 33.5429 37.855 33.2029 37.1146 32.8579C35.3509 32.039 33.5873 31.2253 31.8236 30.4064C29.6743 29.4124 27.5302 28.4184 25.3809 27.4192C23.535 26.5643 21.6942 25.7094 19.8483 24.8544C18.9484 24.4373 18.0486 23.9995 17.1385 23.5978C17.1282 23.5926 17.1128 23.5875 17.1025 23.5823C17.1025 24.7669 17.1025 25.9566 17.1025 27.1411C17.843 26.7961 18.5834 26.4562 19.3238 26.1111C21.0875 25.2922 22.8511 24.4785 24.6148 23.6596C26.764 22.6656 28.9082 21.6716 31.0575 20.6724C32.9034 19.8175 34.7442 18.9626 36.5901 18.1076C37.4899 17.6905 38.4103 17.2939 39.2998 16.851C39.3101 16.8458 39.3255 16.8407 39.3358 16.8355C39.778 16.6295 40.1585 16.0578 40.2819 15.6046C40.4156 15.1102 40.3539 14.4561 40.0763 14.0184C39.7935 13.5806 39.3718 13.1892 38.8474 13.0707C38.2766 12.942 37.7881 13.0347 37.2637 13.2767C36.5232 13.6218 35.7828 13.9617 35.0424 14.3068C33.2787 15.1257 31.5151 15.9394 29.7514 16.7583C27.6022 17.7523 25.458 18.7463 23.3087 19.7454C21.4628 20.6003 19.622 21.4553 17.7761 22.3102C16.8763 22.7274 15.9559 23.124 15.0664 23.5669C15.0561 23.572 15.0407 23.5772 15.0304 23.5823C14.3928 23.881 14.0123 24.6896 14.0123 25.3592C14.0123 26.0287 14.3928 26.8424 15.0304 27.136C15.7811 27.4862 16.5318 27.8313 17.2825 28.1815C19.0821 29.0158 20.8818 29.8502 22.6763 30.6793C24.841 31.6836 27.0057 32.6828 29.1653 33.6871C31.0163 34.5472 32.8674 35.4021 34.7236 36.2622C35.5669 36.6536 36.4101 37.0502 37.2534 37.4313C37.2585 37.4313 37.2585 37.4364 37.2637 37.4364C37.4282 37.5137 28.0084 34.954 37.7573 37.6424C38.1172 37.7403 38.4926 37.7248 38.8525 37.6424C39.5929 37.4725 39.1816 37.5085 39.3461 37.4313C39.3667 37.421 39.3873 37.4158 39.4027 37.4055C39.5158 37.354 39.6289 37.3025 39.7369 37.251C40.2202 37.0296 40.7036 36.8081 41.192 36.5918C42.9094 35.809 44.6268 35.0313 46.339 34.2484C48.4986 33.2648 50.6633 32.2811 52.8229 31.2974C54.7665 30.4115 56.7101 29.5308 58.6486 28.645C59.7078 28.1609 60.7721 27.6768 61.8314 27.1978C61.8776 27.1772 61.9291 27.1566 61.9753 27.1308C62.6129 26.8373 62.9934 26.0184 62.9934 25.354C62.9934 24.6845 62.6129 23.8656 61.9753 23.5772C61.2246 23.2321 60.4688 22.8922 59.7181 22.5471C57.9184 21.7282 56.1188 20.9094 54.3191 20.0905C52.1441 19.1016 49.964 18.1076 47.789 17.1188C45.902 16.2587 44.0098 15.3986 42.1227 14.5385C41.2075 14.1214 40.2974 13.7042 39.3821 13.2922C39.3667 13.287 39.3564 13.2819 39.341 13.2767C38.8216 13.0398 38.3229 12.9111 37.7573 13.0707C37.2791 13.2046 36.7649 13.5703 36.5284 14.0184C36.2764 14.4973 36.1479 15.0742 36.3227 15.6046C36.4667 16.0939 36.7803 16.6244 37.2585 16.8458Z" fill="#1B2235"/>
</svg>
