<?xml version="1.0" encoding="UTF-8"?>
<svg width="22px" height="18px" viewBox="0 0 22 18" version="1.1" xmlns="http://www.w3.org/2000/svg" xmlns:xlink="http://www.w3.org/1999/xlink">
    <!-- Generator: Sketch 57.1 (83088) - https://sketch.com -->
    <title>logo</title>
    <desc>Created with Sketch.</desc>
    <g id="Page-1" stroke="none" stroke-width="1" fill="none" fill-rule="evenodd">
        <g id="Dark-Background" transform="translate(-214.000000, -28.000000)" fill="#FFFFFF">
            <g id="webapps-ui-copy" transform="translate(166.000000, 28.000000)">
                <g id="logo" transform="translate(47.000000, 0.000000)">
                    <path d="M4.08882717,2.8778992 L13.942156,2.98617754 C14.3822942,2.99101422 14.5415114,3.03770453 14.7021768,3.12433912 C14.8628423,3.2109737 14.9890263,3.33715772 15.0756609,3.49782316 C15.1622955,3.65848861 15.2089858,3.81770583 15.2138225,4.257844 L15.3221008,14.1111728 C15.3281695,14.6634242 14.8854009,15.1160321 14.3331495,15.1221008 C14.3258242,15.1221813 14.3184982,15.1221813 14.3111728,15.1221008 L4.457844,15.0138225 C4.01770583,15.0089858 3.85848861,14.9622955 3.69782316,14.8756609 C3.53715772,14.7890263 3.4109737,14.6628423 3.32433912,14.5021768 C3.23770453,14.3415114 3.19101422,14.1822942 3.18617754,13.742156 L3.0778992,3.88882717 C3.0718305,3.33657577 3.51459907,2.8839679 4.06685048,2.8778992 C4.07417582,2.8778187 4.08150183,2.8778187 4.08882717,2.8778992 Z" id="left-app-copy-3" opacity="0.703464" transform="translate(9.200000, 9.000000) rotate(-45.000000) translate(-9.200000, -9.000000) "></path>
                    <path d="M9.19826014,2.8778992 L19.051589,2.98617754 C19.4917271,2.99101422 19.6509444,3.03770453 19.8116098,3.12433912 C19.9722752,3.2109737 20.0984593,3.33715772 20.1850938,3.49782316 C20.2717284,3.65848861 20.3184187,3.81770583 20.3232554,4.257844 L20.4315338,14.1111728 C20.4376025,14.6634242 19.9948339,15.1160321 19.4425825,15.1221008 C19.4352571,15.1221813 19.4279311,15.1221813 19.4206058,15.1221008 L9.56727697,15.0138225 C9.1271388,15.0089858 8.96792157,14.9622955 8.80725612,14.8756609 C8.64659068,14.7890263 8.52040666,14.6628423 8.43377208,14.5021768 C8.3471375,14.3415114 8.30044718,14.1822942 8.2956105,13.742156 L8.18733216,3.88882717 C8.18126347,3.33657577 8.62403203,2.8839679 9.17628344,2.8778992 C9.18360879,2.8778187 9.19093479,2.8778187 9.19826014,2.8778992 Z" id="right-app-copy-3" transform="translate(14.309433, 9.000000) rotate(-45.000000) translate(-14.309433, -9.000000) "></path>
                </g>
            </g>
        </g>
    </g>
</svg>