<svg width="64" height="64" viewBox="0 0 64 64" fill="none" xmlns="http://www.w3.org/2000/svg">
<path fill-rule="evenodd" clip-rule="evenodd" d="M6.06255 64C2.71418 64 0 61.2858 0 57.9375V6.06255C0 2.71418 2.71418 0 6.06255 0H57.9375C61.2858 0 64 2.71418 64 6.06255V57.9375C64 61.2858 61.2858 64 57.9375 64H6.06255Z" fill="#8A90E3"/>
<path opacity="0.754836" fill-rule="evenodd" clip-rule="evenodd" d="M44.3394 27.2727C43.3379 31.8118 41.6813 34.9177 39.3697 36.5906C37.0581 38.2635 32.4197 39.7131 25.4545 40.9394V44.8727C25.4545 46.1982 26.529 47.2727 27.8545 47.2727H46.9094L51.1756 51.5393C52.1129 52.4765 53.6325 52.4765 54.5698 51.5393C55.0198 51.0892 55.2727 50.4788 55.2727 49.8422V42.7636V29.6727C55.2727 28.3472 54.1982 27.2727 52.8727 27.2727H44.3394Z" fill="url(#paint0_linear)"/>
<path fill-rule="evenodd" clip-rule="evenodd" d="M46.0873 15.6364C47.5453 15.6364 48.7273 16.8183 48.7273 18.2764V39.3431C48.7273 40.8012 47.5453 41.9832 46.0873 41.9832L20.3211 41.9829L13.595 48.6897C12.5625 49.7192 10.8909 49.7167 9.86144 48.6842C9.36802 48.1894 9.09094 47.5191 9.09094 46.8202V18.2764C9.09094 16.8183 10.2729 15.6364 11.7309 15.6364H46.0873ZM27.8113 31.8835H16.7948C16.1885 31.8835 15.697 32.375 15.697 32.9813C15.697 33.5876 16.1885 34.0791 16.7948 34.0791H27.8113C28.4176 34.0791 28.9091 33.5876 28.9091 32.9813C28.9091 32.375 28.4176 31.8835 27.8113 31.8835ZM41.0235 27.4924H16.7948C16.1885 27.4924 15.697 27.9839 15.697 28.5902C15.697 29.1965 16.1885 29.688 16.7948 29.688H41.0235C41.6297 29.688 42.1212 29.1965 42.1212 28.5902C42.1212 27.9839 41.6297 27.4924 41.0235 27.4924ZM41.0235 23.1013H16.7948C16.1885 23.1013 15.697 23.5928 15.697 24.1991C15.697 24.8054 16.1885 25.2968 16.7948 25.2968H41.0235C41.6297 25.2968 42.1212 24.8054 42.1212 24.1991C42.1212 23.5928 41.6297 23.1013 41.0235 23.1013Z" fill="white"/>
<defs>
<linearGradient id="paint0_linear" x1="14.8068" y1="27.0913" x2="50.8839" y2="54.3258" gradientUnits="userSpaceOnUse">
<stop stop-color="#A38AE3"/>
<stop offset="1" stop-color="white"/>
</linearGradient>
</defs>
</svg>
